<?xml version="1.0" encoding="utf-8"?>
<svg width="87px" height="87px" viewBox="0 0 87 87" version="1.1" xmlns:xlink="http://www.w3.org/1999/xlink" xmlns="http://www.w3.org/2000/svg">
  <desc>Created with Lunacy</desc>
  <g id="Group-7" transform="translate(0.5 0.5)">
    <path d="M8 0L78 0Q78.2049 0 78.4084 0.009326Q78.612 0.018652 78.8137 0.037285Q79.0155 0.055918 79.215 0.0838199Q79.4146 0.111722 79.6115 0.148836Q79.8084 0.18595 80.0024 0.2322Q80.1963 0.27845 80.3868 0.333743Q80.5773 0.389035 80.7641 0.453256Q80.9508 0.517478 81.1333 0.590497Q81.3159 0.663517 81.4939 0.745186Q81.6719 0.826855 81.845 0.917006Q82.0181 1.00716 82.1859 1.10561Q82.3537 1.20406 82.5159 1.31061Q82.6781 1.41715 82.8344 1.53158Q82.9907 1.64601 83.1407 1.76809Q83.2908 1.89016 83.4342 2.01963Q83.5777 2.14911 83.7143 2.28571Q83.8509 2.42232 83.9804 2.56578Q84.1098 2.70925 84.2319 2.85927Q84.354 3.0093 84.4684 3.16558Q84.5829 3.32186 84.6894 3.48408Q84.796 3.6463 84.8944 3.81412Q84.9929 3.98195 85.083 4.15504Q85.1732 4.32813 85.2548 4.50613Q85.3365 4.68413 85.4095 4.86668Q85.4825 5.04923 85.5467 5.23595Q85.611 5.42268 85.6663 5.61319Q85.7216 5.80371 85.7678 5.99764Q85.8141 6.19157 85.8512 6.3885Q85.8883 6.58544 85.9162 6.78498Q85.9441 6.98453 85.9627 7.18627Q85.9814 7.38802 85.9907 7.59155Q86 7.79509 86 8L86 78Q86 78.2049 85.9907 78.4084Q85.9814 78.612 85.9627 78.8137Q85.9441 79.0155 85.9162 79.215Q85.8883 79.4146 85.8512 79.6115Q85.8141 79.8084 85.7678 80.0024Q85.7216 80.1963 85.6663 80.3868Q85.611 80.5773 85.5468 80.7641Q85.4825 80.9508 85.4095 81.1333Q85.3365 81.3159 85.2548 81.4939Q85.1732 81.6719 85.083 81.845Q84.9929 82.0181 84.8944 82.1859Q84.796 82.3537 84.6894 82.5159Q84.5829 82.6781 84.4684 82.8344Q84.354 82.9907 84.2319 83.1407Q84.1098 83.2908 83.9804 83.4342Q83.8509 83.5777 83.7143 83.7143Q83.5777 83.8509 83.4342 83.9804Q83.2908 84.1098 83.1407 84.2319Q82.9907 84.354 82.8344 84.4684Q82.6781 84.5829 82.5159 84.6894Q82.3537 84.796 82.1859 84.8944Q82.0181 84.9928 81.845 85.083Q81.6719 85.1732 81.4939 85.2548Q81.3159 85.3365 81.1333 85.4095Q80.9508 85.4825 80.7641 85.5467Q80.5773 85.611 80.3868 85.6663Q80.1963 85.7216 80.0024 85.7678Q79.8084 85.814 79.6115 85.8512Q79.4146 85.8883 79.215 85.9162Q79.0155 85.9441 78.8137 85.9627Q78.612 85.9814 78.4084 85.9907Q78.2049 86 78 86L8 86Q7.79509 86 7.59155 85.9907Q7.38802 85.9814 7.18627 85.9627Q6.98453 85.9441 6.78498 85.9162Q6.58544 85.8883 6.3885 85.8512Q6.19157 85.814 5.99764 85.7678Q5.80371 85.7216 5.6132 85.6663Q5.42268 85.611 5.23595 85.5468Q5.04923 85.4825 4.86668 85.4095Q4.68413 85.3365 4.50613 85.2548Q4.32813 85.1732 4.15504 85.083Q3.98195 84.9928 3.81412 84.8944Q3.6463 84.796 3.48408 84.6894Q3.32186 84.5829 3.16558 84.4684Q3.0093 84.354 2.85927 84.2319Q2.70925 84.1098 2.56578 83.9804Q2.42232 83.8509 2.28571 83.7143Q2.14911 83.5777 2.01963 83.4342Q1.89016 83.2908 1.76809 83.1407Q1.64601 82.9907 1.53158 82.8344Q1.41715 82.6781 1.31061 82.5159Q1.20406 82.3537 1.10561 82.1859Q1.00716 82.0181 0.917006 81.845Q0.826855 81.6719 0.745186 81.4939Q0.663517 81.3159 0.590497 81.1333Q0.517478 80.9508 0.453256 80.7641Q0.389035 80.5773 0.333743 80.3868Q0.27845 80.1963 0.2322 80.0024Q0.18595 79.8084 0.148836 79.6115Q0.111722 79.4146 0.0838199 79.215Q0.055918 79.0155 0.037285 78.8137Q0.018652 78.612 0.009326 78.4084Q0 78.2049 0 78L0 8Q0 7.79509 0.009326 7.59155Q0.018652 7.38802 0.037285 7.18627Q0.055918 6.98453 0.0838199 6.78498Q0.111722 6.58544 0.148836 6.3885Q0.18595 6.19157 0.2322 5.99764Q0.27845 5.80371 0.333743 5.6132Q0.389035 5.42268 0.453256 5.23595Q0.517478 5.04923 0.590497 4.86668Q0.663517 4.68413 0.745186 4.50613Q0.826855 4.32813 0.917006 4.15504Q1.00716 3.98195 1.10561 3.81412Q1.20406 3.6463 1.31061 3.48408Q1.41715 3.32186 1.53158 3.16558Q1.64601 3.0093 1.76809 2.85927Q1.89016 2.70925 2.01963 2.56578Q2.14911 2.42232 2.28571 2.28571Q2.42232 2.14911 2.56578 2.01963Q2.70925 1.89016 2.85927 1.76809Q3.0093 1.64601 3.16558 1.53158Q3.32186 1.41715 3.48408 1.31061Q3.6463 1.20406 3.81412 1.10561Q3.98195 1.00716 4.15504 0.917006Q4.32813 0.826855 4.50613 0.745186Q4.68413 0.663517 4.86668 0.590497Q5.04923 0.517478 5.23595 0.453256Q5.42268 0.389035 5.61319 0.333743Q5.80371 0.27845 5.99764 0.2322Q6.19157 0.18595 6.3885 0.148836Q6.58544 0.111722 6.78498 0.0838199Q6.98453 0.055918 7.18627 0.037285Q7.38802 0.018652 7.59155 0.009326Q7.79509 0 8 0Z" id="Rectangle-3" fill="#CFCFCF" stroke="none" />
    <path d="M8.79545 17.5909C13.6531 17.5909 17.5909 13.6531 17.5909 8.79545C17.5909 3.93786 13.6531 0 8.79545 0C3.93786 0 0 3.93786 0 8.79545C0 13.6531 3.93786 17.5909 8.79545 17.5909Z" transform="translate(52.77273 15.63636)" id="Oval" fill="#FFFFFF" stroke="none" />
    <path d="M0.282493 17.0756L16.6251 0L59.4686 43.5841L0 43.8742L0.282493 17.0756Z" transform="translate(10.80344 31.41588)" id="Path-2" fill="#FFFFFF" stroke="none" />
  </g>
</svg>